<?xml version="1.0" encoding="UTF-8" standalone="no"?>
<!-- Created with Inkscape (http://www.inkscape.org/) -->

<svg
   width="101.79351"
   height="98.45063"
   viewBox="0 0 101.79351 98.45063"
   version="1.1"
   id="svg1"
   xmlns="http://www.w3.org/2000/svg"
   xmlns:svg="http://www.w3.org/2000/svg">
  <defs
     id="defs1" />
  <g
     id="layer1"
     transform="translate(-12.851762,-8.9282379)">
    <path
       d="m 39.732422,8.9296875 c -1.634986,-0.02705 -3.37333,0.3255684 -4.923828,0.9746094 -2.067332,0.8653881 -3.798961,2.2597511 -5.746094,4.7597661 -1.947133,2.500013 -4.110856,6.105883 -6.082031,11.322265 -1.971176,5.216382 -3.749682,12.041699 -5.167969,19.277344 -1.418287,7.235645 -2.476251,14.880482 -3.269531,24.111328 -0.79328,9.230846 -0.904452,20.075947 -1.539063,26.345703 -1.824521,18.025697 13.327472,11.546667 15.144531,4.423827 0.600971,-2.355787 0.793117,-4.951594 1.177735,-7.980468 0.985491,-7.760772 2.339176,-11.568868 5.457031,-13.269531 1.322129,-0.721167 2.668256,-0.864782 4.0625,-0.648437 5.712359,0.886387 7.315235,5.17204 10.769531,16.345703 C 52.794596,107.9817 75.874604,113.09667 62.476562,83.4375 60.864911,79.869795 59.279314,75.672217 57.404297,70.191406 55.529279,64.710595 53.509936,57.884083 52.019531,51.898437 50.529126,45.912793 49.568219,40.768381 49.183594,36.441406 c -0.384625,-4.326974 -0.193963,-7.836503 -0.169922,-10.9375 0.02404,-3.100996 -0.118689,-5.79174 -0.527344,-8.027344 -0.408655,-2.235603 -1.081874,-4.014705 -2.259766,-5.457031 -1.177891,-1.442325 -2.86101,-2.5489671 -4.904296,-2.9335935 -0.510822,-0.096157 -1.044849,-0.1472334 -1.589844,-0.15625 z m 51.021484,1.8671875 c -4.605605,0.02513 -8.639676,0.540405 -11.78125,1.300781 -3.590369,0.869001 -6.015076,2.057735 -7.798828,3.75 -1.783751,1.692266 -2.926239,3.887368 -3.886719,6.97461 -0.96048,3.087241 -1.738999,7.065631 -2.082031,11.273437 -0.343032,4.207806 -0.251474,8.644544 0.160156,13.904297 0.411631,5.259752 1.142884,11.341693 1.783203,17.539062 0.64032,6.19737 1.189515,12.509995 1.898438,18.25 0.708923,5.740006 1.577624,10.907573 2.263672,14.177735 0.686048,3.270163 1.190955,4.643593 3.134765,6.175783 1.943812,1.5322 5.327312,3.22323 7.728516,2.14844 2.401204,-1.0748 3.819148,-4.9164 4.322266,-8.621098 0.503117,-3.704707 0.09052,-7.271841 -0.824219,-12.074219 -0.914735,-4.802378 -2.330804,-10.838851 -1.226563,-13.5 1.104241,-2.661149 3.804091,-2.129947 7.638672,-2.822266 3.834582,-0.692317 8.087466,-2.750258 10.740236,-5.037109 2.65277,-2.286851 3.70434,-4.801771 3.91016,-6.882812 0.20582,-2.081042 -0.43499,-3.728231 -3.86524,-4.894532 -3.430254,-1.1663 -9.648856,-1.851121 -14.062499,-3.246093 -4.413643,-1.394974 -7.021269,-3.498707 -8.347657,-6.03711 -1.326387,-2.538401 -1.373079,-5.512784 0.273438,-7.753906 1.646517,-2.241123 4.985615,-3.74916 10.451172,-4.34375 5.465556,-0.594591 13.058516,-0.274858 17.609376,-2.607422 4.55087,-2.332563 6.05875,-7.317029 5.83008,-10.404297 -0.22866,-3.087268 -2.19448,-4.276985 -6.24219,-5.283203 -4.04771,-1.006217 -10.176425,-1.829579 -15.619141,-1.966797 -0.68034,-0.01715 -1.349869,-0.02312 -2.007813,-0.01953 z M 35.251953,39.400391 c 0.61495,-0.03648 1.235872,0.07451 1.839844,0.335937 6.528524,2.825828 8.345652,16.614308 -0.625,21.152344 -2.043289,1.03365 -3.96694,0.650715 -5.289063,-0.767578 -1.322122,-1.418294 -2.042969,-3.871522 -2.355468,-6.275391 -0.312499,-2.403869 -0.216207,-4.760043 0.384765,-7.091797 0.600973,-2.331753 1.706713,-4.638217 3.125,-5.984375 0.886429,-0.841348 1.895006,-1.308346 2.919922,-1.36914 z"
       style="stroke-width:6.04724;stroke-linecap:round;stroke-linejoin:round;paint-order:markers fill stroke"
       id="path5" />
  </g>
</svg>
