<?xml version="1.0" encoding="UTF-8" standalone="no"?>
<!-- Created with Inkscape (http://www.inkscape.org/) -->

<svg
   width="101.79351"
   height="98.45063"
   viewBox="0 0 101.79351 98.45063"
   version="1.1"
   id="svg1"
   sodipodi:docname="Favicon.svg"
   xmlns:inkscape="http://www.inkscape.org/namespaces/inkscape"
   xmlns:sodipodi="http://sodipodi.sourceforge.net/DTD/sodipodi-0.dtd"
   xmlns="http://www.w3.org/2000/svg"
   xmlns:svg="http://www.w3.org/2000/svg">
  <sodipodi:namedview
     id="namedview1"
     pagecolor="#ffffff"
     bordercolor="#000000"
     borderopacity="0.25"
     inkscape:showpageshadow="2"
     inkscape:pageopacity="0.0"
     inkscape:pagecheckerboard="0"
     inkscape:deskcolor="#d1d1d1"
     showgrid="false">
    <inkscape:page
       x="0"
       y="0"
       width="101.79351"
       height="98.45063"
       id="page2"
       margin="0"
       bleed="0" />
  </sodipodi:namedview>
  <defs
     id="defs1" />
  <path
     d="M 30.449219,2.5039063 C 30.188922,2.5005 29.925921,2.5084135 29.662109,2.5273438 26.379125,2.7629201 22.869575,4.7150201 20.244141,8.0859375 5.4243662,30.408564 6.8752881,59.965897 4.8789062,85.640625 3.1332502,102.88716 17.630624,96.688002 19.369141,89.873047 c 0.574994,-2.253958 0.75896,-4.738768 1.126953,-7.636719 0.942893,-7.425313 2.237617,-11.068161 5.220703,-12.695312 1.26498,-0.689995 2.552741,-0.828088 3.886719,-0.621094 5.465442,0.848073 6.999703,4.949943 10.304687,15.640625 1.460299,6.150057 4.905944,10.393836 11.576172,10.169922 4.632344,-0.155505 7.393631,-6.089223 0.728516,-20.84375 C 42.613743,52.637139 41.512839,32.830603 38.828125,10.777344 37.797038,5.136643 34.353674,2.5549997 30.449219,2.5039063 Z m 45.121093,3.7910156 c -10.418807,0.064582 -19.720445,1.3392506 -21.8125,9.0312501 -6.26547,23.036694 0.798014,46.78855 4.814454,70.009765 1.904496,9.078102 14.457301,11.457248 16.621093,2.167969 0.811507,-3.483842 0.08809,-6.955986 -0.787109,-11.550781 -0.875196,-4.594795 -3.581965,-12.736814 -2.615234,-15.318359 2.084593,-5.566675 17.937467,2.437909 21.658203,-7.066407 4.68659,-10.87077 -8.99873,-10.382279 -16.044922,-12.425781 -4.222863,-1.334676 -6.717273,-3.348663 -7.986328,-5.777344 -1.269054,-2.428678 -1.313627,-5.273719 0.261718,-7.417968 5.063688,-6.892335 19.415202,-0.872735 25.390625,-6.263672 10.519998,-9.490988 -6.931211,-15.4665842 -19.5,-15.3886721 z M 26.166016,31.753906 c 0.588368,-0.0349 1.1819,0.07214 1.759765,0.322266 6.246329,2.703681 7.98524,15.894449 -0.597656,20.236328 -1.954968,0.98897 -3.795573,0.622612 -5.060547,-0.734375 -1.264973,-1.356988 -1.954915,-3.703944 -2.253906,-6.003906 -0.298991,-2.299962 -0.207808,-4.554192 0.367187,-6.785157 0.574996,-2.230961 1.633253,-4.436639 2.990235,-5.724609 0.848113,-0.804981 1.814308,-1.252381 2.794922,-1.310547 z"
     style="fill:#fcfcfc;stroke-width:6.04724;stroke-linecap:round;stroke-linejoin:round;paint-order:markers fill stroke"
     id="path4" />
</svg>
